<svg id="Layer_1" data-name="Layer 1" xmlns="http://www.w3.org/2000/svg" viewBox="0 0 601.44 309.25"><defs><style>.cls-1{fill:#44bfef;}.cls-2{fill:#fff;}.cls-3{fill:#2a2a2a;}</style></defs><title>en-logo</title><g id="mesa"><path class="cls-1" d="M812.72,339.43l-80.59,59.48H454.62a25.07,25.07,0,0,0-25,25v89.71a25.07,25.07,0,0,0,25,25h333.1a25.07,25.07,0,0,0,25-25V339.43Z" transform="translate(-211.28 -229.38)"/><path class="cls-2" d="M480.27,439h17.54l14.29,23.18L526.39,439h17.53v59.89H527.41v-34.4L512.1,487.94h-.34l-15.23-23.27v34.22H480.27Z" transform="translate(-211.28 -229.38)"/><path class="cls-2" d="M563.52,439h48.17v14.12H580v9.06H608.7v13.09H580v9.5h32.17v14.12h-48.6Z" transform="translate(-211.28 -229.38)"/><path class="cls-2" d="M625,490l9.24-11a30.82,30.82,0,0,0,19.42,7.19c4.45,0,6.85-1.54,6.85-4.11v-.17c0-2.48-2-3.85-10.1-5.73-12.75-2.91-22.59-6.5-22.59-18.82v-.17c0-11.13,8.82-19.17,23.19-19.17,10.18,0,18.14,2.74,24.64,8l-8.3,11.72c-5.47-3.85-11.46-5.9-16.77-5.9-4,0-6,1.71-6,3.85v.17c0,2.73,2.06,3.93,10.36,5.81,13.77,3,22.33,7.45,22.33,18.66v.17c0,12.23-9.67,19.5-24.22,19.5C642.49,499.91,632.4,496.58,625,490Z" transform="translate(-211.28 -229.38)"/><path class="cls-2" d="M715.05,438.57h16l25.49,60.32H738.75l-4.37-10.7h-23.1L707,498.89H689.55Zm14.54,36.7-6.67-17-6.76,17Z" transform="translate(-211.28 -229.38)"/></g><g id="hello"><path class="cls-2" d="M211.28,369.49v60l80-60h332.1a25,25,0,0,0,25-25V254.38a25,25,0,0,0-25-25H236.28a25,25,0,0,0-25,25Z" transform="translate(-211.28 -229.38)"/><path class="cls-3" d="M272.24,268.51h16.6v22.42h21.31V268.51h16.59V328.4H310.15V305.64H288.84V328.4h-16.6Z" transform="translate(-211.28 -229.38)"/><path class="cls-3" d="M346.34,268.51h48.17v14.12H362.77v9.07h28.74v13.09H362.77v9.49h32.17V328.4h-48.6Z" transform="translate(-211.28 -229.38)"/><path class="cls-3" d="M412.39,268.51H429v45.35h29V328.4h-45.6Z" transform="translate(-211.28 -229.38)"/><path class="cls-3" d="M474.08,268.51h16.6v45.35h29V328.4h-45.6Z" transform="translate(-211.28 -229.38)"/><path class="cls-3" d="M533.72,298.63v-.17c0-17.2,13.86-31.15,32.34-31.15s32.17,13.78,32.17,31v.18c0,17.19-13.86,31.14-32.34,31.14S533.72,315.82,533.72,298.63Zm47.57,0v-.17c0-8.65-6.25-16.17-15.4-16.17s-15.15,7.35-15.15,16v.18c0,8.64,6.25,16.17,15.32,16.17S581.29,307.27,581.29,298.63Z" transform="translate(-211.28 -229.38)"/></g></svg>