<?xml version="1.0" encoding="utf-8"?>
<!-- Generator: Adobe Illustrator 22.1.0, SVG Export Plug-In . SVG Version: 6.00 Build 0)  -->
<svg version="1.1" id="Layer_1" xmlns="http://www.w3.org/2000/svg" xmlns:xlink="http://www.w3.org/1999/xlink" x="0px" y="0px"
	 viewBox="0 0 1024 477" style="enable-background:new 0 0 1024 477;" xml:space="preserve">
<style type="text/css">
	.st0{fill:#44BEEE;}
	.st1{fill:#FFFFFF;}
	.st2{fill:#2A2A2A;}
</style>
<g id="Logo_7_">
	<g id="mesa_2_">
		<path class="st0" d="M1024,169.1L899.6,261H162.2c-21.2,0-38.6,17.4-38.6,38.6v138.5c0,21.2,17.4,38.6,38.6,38.6h823.2
			c21.2,0,38.6-17.4,38.6-38.6V298.5V169.1z"/>
		<g>
			<path class="st1" d="M207.2,374.8v-51.9h26v51.4c0,13.3,6.7,19.7,17,19.7s17-6.1,17-19v-52.1h26v51.3c0,29.9-17,42.9-43.3,42.9
				S207.2,403.7,207.2,374.8z"/>
			<path class="st1" d="M345,345.3h-27.7v-22.5h81.1v22.5h-27.7v70H345V345.3z"/>
			<path class="st1" d="M423.4,322.8h43.7c14.1,0,23.9,3.7,30.1,10c5.4,5.3,8.2,12.4,8.2,21.5v0.3c0,14.1-7.5,23.5-19,28.4
				l22.1,32.2h-29.6l-18.6-28H460h-11v28h-25.6V322.8z M466,367.2c8.7,0,13.7-4.2,13.7-11V356c0-7.3-5.3-11-13.9-11h-16.8v22.2H466z
				"/>
			<path class="st1" d="M532.3,322.8h74.4v21.8h-49v14h44.4v20.2h-44.4v14.7h49.7v21.8h-75V322.8z"/>
			<path class="st1" d="M631.1,369.3v-0.3c0-27,20.7-48.1,48.8-48.1c18.9,0,31,7.9,39.2,19.3l-19.3,14.9
				c-5.3-6.6-11.4-10.8-20.2-10.8c-12.9,0-22.1,11-22.1,24.4v0.3c0,13.9,9.1,24.7,22.1,24.7c9.6,0,15.3-4.5,20.9-11.2l19.3,13.7
				c-8.7,12-20.5,20.9-41,20.9C652.4,417.2,631.1,397,631.1,369.3z"/>
			<path class="st1" d="M744.6,322.8h25.6v34.6h32.9v-34.6h25.6v92.5h-25.6v-35.1h-32.9v35.1h-25.6V322.8z"/>
			<path class="st1" d="M881.6,345.3h-27.7v-22.5H935v22.5h-27.7v70h-25.6V345.3z"/>
		</g>
	</g>
	<g id="hello_2_">
		<path class="st1" d="M0,215.5v92.7l123.5-92.7h520.2c21.3,0,38.6-17.3,38.6-38.6V37.8c0-21.3-17.3-38.6-38.6-38.6H38.6
			C17.3-0.8,0,16.4,0,37.8V215.5z"/>
		<g>
			<path class="st2" d="M94.1,59.6h25.6v34.6h32.9V59.6h25.6v92.5h-25.6v-35.1h-32.9v35.1H94.1V59.6z"/>
			<path class="st2" d="M240.5,58.9h24.7l39.4,93.1h-27.5l-6.7-16.5h-35.7l-6.6,16.5h-27L240.5,58.9z M263,115.6l-10.3-26.3
				l-10.4,26.3H263z"/>
			<path class="st2" d="M327.5,59.6h25.6v70h44.8v22.5h-70.4V59.6z"/>
			<path class="st2" d="M422.7,59.6h25.6v70h44.8v22.5h-70.4V59.6z"/>
			<path class="st2" d="M514.8,106.1v-0.3c0-26.6,21.4-48.1,49.9-48.1c28.5,0,49.7,21.3,49.7,47.8v0.3c0,26.6-21.4,48.1-49.9,48.1
				S514.8,132.6,514.8,106.1z M588.3,106.1v-0.3c0-13.3-9.6-25-23.8-25c-14,0-23.4,11.4-23.4,24.7v0.3c0,13.3,9.6,25,23.7,25
				C578.9,130.8,588.3,119.4,588.3,106.1z"/>
		</g>
	</g>
</g>
</svg>
