<?xml version="1.0" encoding="utf-8"?>
<!-- Generator: Adobe Illustrator 22.1.0, SVG Export Plug-In . SVG Version: 6.00 Build 0)  -->
<svg version="1.1" id="Layer_1" xmlns="http://www.w3.org/2000/svg" xmlns:xlink="http://www.w3.org/1999/xlink" x="0px" y="0px"
	 viewBox="0 0 1324.2 690.3" style="enable-background:new 0 0 1324.2 690.3;" xml:space="preserve">
<style type="text/css">
	.st0{fill:#47BCEC;}
	.st1{fill:#FFFFFF;}
	.st2{fill:#2A2A2A;}
</style>
<g>
	<path class="st0" d="M1206.8,230.3l51.1-51.1v51.1v154.9c0,13.2-10.7,23.9-23.9,23.9H91.5c-13.2,0-23.9-10.7-23.9-23.9v-131
		c0-13.2,10.7-23.9,23.9-23.9L1206.8,230.3L1206.8,230.3z"/>
	<path class="st1" d="M0,178.7V23.9C0,10.7,10.7,0,23.9,0H541c13.2,0,23.9,10.7,23.9,23.9v131c0,13.2-10.7,23.9-23.9,23.9H51.1
		L0,229.9V178.7z"/>
	<g>
		<path class="st2" d="M74.4,51.5h21.2v28.6h27.2V51.5H144v76.4h-21.2v-29H95.6v29H74.4V51.5z"/>
		<path class="st2" d="M193.7,51h20.4l32.5,76.9h-22.7l-5.6-13.6h-29.5l-5.5,13.6H161L193.7,51z M212.2,97.8l-8.5-21.7l-8.6,21.7
			H212.2z"/>
		<path class="st2" d="M263.8,51.5H285v57.8h37v18.5h-58.1V51.5H263.8z"/>
		<path class="st2" d="M340.8,51.5H362v57.8h37v18.5h-58.1V51.5H340.8z"/>
		<path class="st2" d="M415.3,89.9v-0.2c0-21.9,17.7-39.7,41.2-39.7s41,17.6,41,39.5v0.2c0,21.9-17.7,39.7-41.2,39.7
			C432.7,129.4,415.3,111.8,415.3,89.9z M475.9,89.9v-0.2c0-11-8-20.6-19.6-20.6S437,78.5,437,89.5v0.2c0,11,8,20.6,19.5,20.6
			C468.2,110.3,475.9,100.9,475.9,89.9z"/>
	</g>
	<path class="st1" d="M1323.5,639.1V484.3c0-13.2-10.7-23.9-23.9-23.9H606.3c-13.2,0-23.9,10.7-23.9,23.9v131
		c0,13.2,10.7,23.9,23.9,23.9h666.1l51.1,51.1L1323.5,639.1L1323.5,639.1z"/>
	<g>
		<path class="st2" d="M654.1,554.4v-42.9h21.5V554c0,11,5.6,16.3,14.1,16.3s14.1-5,14.1-15.7v-43h21.5v42.3
			c0,24.7-14.1,35.5-35.8,35.5C667.8,589.3,654.1,578.3,654.1,554.4z"/>
		<path class="st2" d="M766.3,530.1h-22.9v-18.5h67v18.5h-22.9v57.8h-21.2L766.3,530.1L766.3,530.1z"/>
		<path class="st2" d="M829.5,511.5h36.1c11.7,0,19.7,3.1,24.9,8.3c4.5,4.4,6.8,10.3,6.8,17.8v0.2c0,11.7-6.2,19.4-15.7,23.5
			l18.2,26.6h-24.4L860,564.8h-0.2h-9.1v23.1h-21.2L829.5,511.5L829.5,511.5z M864.6,548.2c7.2,0,11.3-3.5,11.3-9.1v-0.2
			c0-6-4.4-9.1-11.5-9.1h-13.9v18.3L864.6,548.2L864.6,548.2z"/>
		<path class="st2" d="M917.7,511.5h61.4v18h-40.5v11.6h36.7v16.7h-36.7v12.1h41v18h-62L917.7,511.5L917.7,511.5z"/>
		<path class="st2" d="M997.7,549.9v-0.2c0-22.3,17.1-39.7,40.3-39.7c15.6,0,25.6,6.5,32.4,15.9l-15.9,12.3
			c-4.4-5.5-9.4-8.9-16.7-8.9c-10.7,0-18.2,9.1-18.2,20.2v0.2c0,11.5,7.5,20.4,18.2,20.4c8,0,12.7-3.7,17.2-9.3l15.9,11.3
			c-7.2,9.9-16.9,17.2-33.8,17.2C1015.3,589.4,997.7,572.7,997.7,549.9z"/>
		<path class="st2" d="M1089.8,511.5h21.2v28.6h27.2v-28.6h21.2v76.4h-21.2v-29H1111v29h-21.2V511.5z"/>
		<path class="st2" d="M1201.3,530.1h-22.9v-18.5h67v18.5h-22.9v57.8h-21.2V530.1z"/>
	</g>
	<g>
		<path class="st1" d="M136.6,281.4h21.2v57.8h37v18.5h-58.2V281.4z"/>
		<path class="st1" d="M240,280.8h20.4l32.5,76.9h-22.7l-5.6-13.6h-29.5l-5.5,13.6h-22.3L240,280.8z M258.6,327.6l-8.5-21.7
			l-8.6,21.7H258.6z"/>
		<path class="st1" d="M310.2,281.4h19.7l31.4,40.4v-40.4h20.9v76.4h-18.5l-32.6-41.9v41.9h-20.9V281.4z"/>
		<path class="st1" d="M424.3,299.9h-22.9v-18.5h67v18.5h-22.9v57.8h-21.2V299.9z"/>
		<path class="st1" d="M513.9,280.8h20.4l32.5,76.9h-22.7l-5.6-13.6h-29.5l-5.5,13.6h-22.3L513.9,280.8z M532.4,327.6l-8.5-21.7
			l-8.6,21.7H532.4z"/>
		<path class="st1" d="M610.4,280.8h20.4l32.5,76.9h-22.7l-5.6-13.6h-29.5l-5.5,13.6h-22.3L610.4,280.8z M629,327.6l-8.5-21.7
			l-8.6,21.7H629z"/>
		<path class="st1" d="M680.6,281.4h36.1c11.7,0,19.7,3.1,24.9,8.3c4.5,4.4,6.8,10.3,6.8,17.8v0.2c0,11.7-6.2,19.4-15.7,23.5
			l18.2,26.6h-24.4L711,334.6h-0.2h-9.1v23.1h-21.2V281.4z M715.7,318c7.2,0,11.3-3.5,11.3-9.1v-0.2c0-6-4.4-9.1-11.5-9.1h-13.9V318
			H715.7z"/>
		<path class="st1" d="M768.8,281.4h19.7l31.4,40.4v-40.4H841v76.4h-18.5l-32.6-41.9v41.9h-20.9V281.4z"/>
		<path class="st1" d="M864.3,281.4H897c19.3,0,31.7,9.9,31.7,26.8v0.2c0,18-13.9,27.5-32.8,27.5h-10.5v21.8h-21.2V281.4z
			 M895.5,319.3c7.5,0,12.1-3.9,12.1-9.9v-0.2c0-6.5-4.6-10-12.2-10h-9.9v20.2H895.5z"/>
		<path class="st1" d="M973.9,280.8h20.4l32.5,76.9h-22.7l-5.6-13.6h-29.5l-5.5,13.6h-22.3L973.9,280.8z M992.5,327.6l-8.5-21.7
			l-8.6,21.7H992.5z"/>
		<path class="st1" d="M1070.5,280.8h20.4l32.5,76.9h-22.7l-5.6-13.6h-29.5l-5.5,13.6H1038L1070.5,280.8z M1089,327.6l-8.5-21.7
			l-8.6,21.7H1089z"/>
		<path class="st1" d="M1140.6,281.4h21.2v57.8h37v18.5h-58.2V281.4z"/>
	</g>
</g>
</svg>
