<?xml version="1.0" encoding="utf-8"?>
<!-- Generator: Adobe Illustrator 22.1.0, SVG Export Plug-In . SVG Version: 6.00 Build 0)  -->
<svg version="1.1" id="Layer_1" xmlns="http://www.w3.org/2000/svg" xmlns:xlink="http://www.w3.org/1999/xlink" x="0px" y="0px"
	 viewBox="0 0 1024 688.4" style="enable-background:new 0 0 1024 688.4;" xml:space="preserve">
<style type="text/css">
	.st0{fill:#47BCEC;}
	.st1{fill:#FFFFFF;}
	.st2{fill:#2A2A2A;}
</style>
<g>
	<path class="st0" d="M899.5,229.4l51-51v51v154.5c0,13.2-10.7,23.8-23.8,23.8H91.9c-13.2,0-23.8-10.7-23.8-23.8V253.2
		c0-13.2,10.7-23.8,23.8-23.8H899.5z"/>
	<path class="st1" d="M0,178.3V23.8C0,10.7,10.7,0,23.8,0h517.5c13.2,0,23.8,10.7,23.8,23.8v130.7c0,13.2-10.7,23.8-23.8,23.8H51
		l-51,51V178.3z"/>
	<g>
		<path class="st1" d="M142.9,280.4H164v57.7h36.9v18.5h-58V280.4z"/>
		<path class="st1" d="M246.1,279.8h20.4l32.4,76.7h-22.6l-5.6-13.6h-29.4l-5.4,13.6h-22.2L246.1,279.8z M264.6,326.5l-8.5-21.7
			l-8.6,21.7H264.6z"/>
		<path class="st1" d="M316.1,280.4h22.3l18.2,29.5l18.2-29.5h22.3v76.2h-21v-43.8l-19.5,29.8h-0.4L336.8,313v43.5h-20.7
			L316.1,280.4L316.1,280.4z"/>
		<path class="st1" d="M420.4,280.4H453c19.3,0,31.7,9.9,31.7,26.8v0.2c0,18-13.8,27.4-32.8,27.4h-10.4v21.8h-21.1L420.4,280.4
			L420.4,280.4z M451.5,318.3c7.5,0,12.1-3.9,12.1-9.9v-0.2c0-6.5-4.6-10-12.2-10h-9.9v20.1H451.5z"/>
		<path class="st1" d="M543.4,280.4H576c19.3,0,31.7,9.9,31.7,26.8v0.2c0,18-13.8,27.4-32.8,27.4h-10.5v21.8h-21.1L543.4,280.4
			L543.4,280.4z M574.5,318.3c7.5,0,12.1-3.9,12.1-9.9v-0.2c0-6.5-4.6-10-12.2-10h-9.9v20.1H574.5z"/>
		<path class="st1" d="M623.8,318.7v-0.2c0-21.9,17.6-39.6,41.1-39.6s40.9,17.5,40.9,39.4v0.2c0,21.9-17.6,39.6-41.1,39.6
			S623.8,340.6,623.8,318.7z M684.4,318.7v-0.2c0-11-7.9-20.6-19.6-20.6c-11.5,0-19.3,9.4-19.3,20.4v0.2c0,11,7.9,20.6,19.5,20.6
			C676.6,339,684.4,329.7,684.4,318.7z"/>
		<path class="st1" d="M720.9,345.3l11.8-14c7.5,6,15.9,9.1,24.7,9.1c5.7,0,8.7-2,8.7-5.2V335c0-3.2-2.5-4.9-12.8-7.3
			c-16.2-3.7-28.7-8.3-28.7-23.9v-0.2c0-14.2,11.2-24.4,29.5-24.4c13,0,23.1,3.5,31.4,10.1l-10.6,14.9c-7-4.9-14.6-7.5-21.3-7.5
			c-5.1,0-7.6,2.2-7.6,4.9v0.2c0,3.5,2.6,5,13.2,7.4c17.5,3.8,28.4,9.5,28.4,23.7v0.2c0,15.6-12.3,24.8-30.8,24.8
			C743.1,357.9,730.3,353.6,720.9,345.3z"/>
		<path class="st1" d="M826.1,298.9h-22.9v-18.5H870v18.5h-22.9v57.7H826v-57.7H826.1z"/>
	</g>
	<g>
		<path class="st2" d="M74.8,51h21.1v28.5H123V51h21.1v76.2H123v-29H95.9v29H74.8V51z"/>
		<path class="st2" d="M167.4,51h61.3v18h-40.4v11.5h36.6v16.7h-36.6v12.1h40.9v18h-61.8L167.4,51L167.4,51z"/>
		<path class="st2" d="M249.9,51H271v57.7h36.9v18.5h-58V51z"/>
		<path class="st2" d="M326.7,51h21.1v57.7h36.9v18.5h-58V51z"/>
		<path class="st2" d="M401,89.3v-0.2c0-21.9,17.6-39.6,41.1-39.6S483,67,483,88.9v0.2c0,21.9-17.6,39.6-41.1,39.6
			C418.4,128.7,401,111.2,401,89.3z M461.5,89.3v-0.2c0-11-7.9-20.6-19.6-20.6c-11.5,0-19.3,9.4-19.3,20.4v0.2
			c0,11,7.9,20.6,19.5,20.6C453.8,109.7,461.5,100.3,461.5,89.3z"/>
	</g>
	<path class="st1" d="M1024,637.3V482.8c0-13.2-10.7-23.8-23.8-23.8H308.4c-13.2,0-23.8,10.7-23.8,23.8v130.7
		c0,13.2,10.7,23.8,23.8,23.8H973l51,51V637.3z"/>
	<g>
		<path class="st2" d="M356.1,552.8V510h21.4v42.3c0,11,5.6,16.2,14,16.2s14-5,14-15.7V510h21.4v42.2c0,24.6-14,35.4-35.7,35.4
			C369.7,587.6,356.1,576.6,356.1,552.8z"/>
		<path class="st2" d="M468,528.5h-22.9V510H512v18.5h-22.9v57.7H468V528.5z"/>
		<path class="st2" d="M531.1,510h36c11.6,0,19.7,3,24.8,8.3c4.5,4.4,6.7,10.2,6.7,17.7v0.2c0,11.6-6.2,19.4-15.7,23.4l18.2,26.6
			h-24.4l-15.3-23.1h-0.2h-9v23.1h-21.1V510z M566.1,546.6c7.2,0,11.3-3.5,11.3-9v-0.2c0-6-4.4-9-11.4-9h-13.8v18.3L566.1,546.6
			L566.1,546.6z"/>
		<path class="st2" d="M619.1,510h61.3v18H640v11.5h36.6v16.7H640v12.1h41v18h-61.8V510H619.1z"/>
		<path class="st2" d="M698.9,548.3v-0.2c0-22.2,17.1-39.6,40.2-39.6c15.6,0,25.6,6.5,32.3,15.9l-15.9,12.3
			c-4.4-5.4-9.4-8.9-16.7-8.9c-10.7,0-18.2,9-18.2,20.1v0.2c0,11.4,7.5,20.4,18.2,20.4c7.9,0,12.6-3.7,17.2-9.3l15.9,11.3
			c-7.2,9.9-16.9,17.2-33.7,17.2C716.5,587.7,698.9,571.1,698.9,548.3z"/>
		<path class="st2" d="M790.8,510h21.1v28.5H839V510h21.1v76.2H839v-29h-27.1v29h-21.1L790.8,510L790.8,510z"/>
		<path class="st2" d="M902.1,528.5h-22.9V510H946v18.5h-22.9v57.7H902v-57.7H902.1z"/>
	</g>
</g>
</svg>
