<?xml version="1.0" encoding="utf-8"?>
<!-- Generator: Adobe Illustrator 22.1.0, SVG Export Plug-In . SVG Version: 6.00 Build 0)  -->
<svg version="1.1" id="Layer_1" xmlns="http://www.w3.org/2000/svg" xmlns:xlink="http://www.w3.org/1999/xlink" x="0px" y="0px"
	 viewBox="0 0 1024 477" style="enable-background:new 0 0 1024 477;" xml:space="preserve">
<style type="text/css">
	.st0{fill:#44BFEF;}
	.st1{fill:#FFFFFF;}
	.st2{fill:#2A2A2A;}
</style>
<g id="mesa_1_">
	<path class="st0" d="M1024,169.7l-124.2,91.7H163.6c-21.2,0-38.5,17.3-38.5,38.5v138.3c0,21.2,17.3,38.5,38.5,38.5h821.9
		c21.2,0,38.5-17.3,38.5-38.5V298.8V169.7z"/>
	<g>
		<path class="st1" d="M208.5,375v-51.8h26v51.3c0,13.3,6.7,19.7,17,19.7s17-6.1,17-19v-52h26v51.2c0,29.8-17,42.9-43.3,42.9
			S208.5,403.9,208.5,375z"/>
		<path class="st1" d="M346.1,345.6h-27.7v-22.4h81v22.4h-27.7v69.9h-25.6V345.6z"/>
		<path class="st1" d="M424.4,323.1h43.7c14.1,0,23.9,3.7,30.1,10c5.4,5.3,8.2,12.4,8.2,21.5v0.3c0,14.1-7.5,23.5-19,28.4l22,32.2
			h-29.5l-18.6-28H461H450v28h-25.6V323.1z M466.9,367.5c8.7,0,13.7-4.2,13.7-10.9v-0.3c0-7.3-5.3-10.9-13.9-10.9H450v22.2H466.9z"
			/>
		<path class="st1" d="M533.1,323.1h74.3v21.8h-48.9v14h44.3v20.2h-44.3v14.6H608v21.8h-74.9V323.1z"/>
		<path class="st1" d="M631.8,369.6v-0.3c0-26.9,20.7-48,48.7-48c18.9,0,31,7.9,39.2,19.3l-19.3,14.9c-5.3-6.6-11.3-10.8-20.2-10.8
			c-12.9,0-22,10.9-22,24.4v0.3c0,13.9,9.1,24.7,22,24.7c9.6,0,15.3-4.5,20.8-11.2l19.3,13.7c-8.7,12-20.4,20.8-40.9,20.8
			C653,417.3,631.8,397.1,631.8,369.6z"/>
		<path class="st1" d="M745.1,323.1h25.6v34.6h32.8v-34.6h25.6v92.3h-25.6v-35.1h-32.8v35.1h-25.6V323.1z"/>
		<path class="st1" d="M881.9,345.6h-27.7v-22.4h81v22.4h-27.7v69.9h-25.6V345.6z"/>
	</g>
</g>
<g id="hello_1_">
	<path class="st1" d="M1.7,216v92.5L125,216h512c21.3,0,38.5-17.3,38.5-38.5V38.5C675.5,17.2,658.3,0,637,0H40.2
		C18.9,0,1.7,17.2,1.7,38.5V216z"/>
	<g>
		<path class="st2" d="M95.7,60.3h25.6v34.6h32.8V60.3h25.6v92.3h-25.6v-35.1h-32.8v35.1H95.7V60.3z"/>
		<path class="st2" d="M209.9,60.3h74.3v21.8h-48.9v14h44.3v20.2h-44.3v14.6h49.6v21.8h-74.9V60.3z"/>
		<path class="st2" d="M311.7,60.3h25.6v69.9H382v22.4h-70.3V60.3z"/>
		<path class="st2" d="M406.8,60.3h25.6v69.9h44.7v22.4h-70.3V60.3z"/>
		<path class="st2" d="M498.8,106.7v-0.3c0-26.5,21.4-48,49.9-48s49.6,21.2,49.6,47.8v0.3c0,26.5-21.4,48-49.9,48
			S498.8,133.3,498.8,106.7z M572.1,106.7v-0.3c0-13.3-9.6-24.9-23.7-24.9c-14,0-23.3,11.3-23.3,24.7v0.3c0,13.3,9.6,24.9,23.6,24.9
			C562.8,131.4,572.1,120.1,572.1,106.7z"/>
	</g>
</g>
</svg>
