<?xml version="1.0" encoding="utf-8"?>
<!-- Generator: Adobe Illustrator 22.0.1, SVG Export Plug-In . SVG Version: 6.00 Build 0)  -->
<svg version="1.1" id="Layer_1" xmlns="http://www.w3.org/2000/svg" xmlns:xlink="http://www.w3.org/1999/xlink" x="0px" y="0px"
	 viewBox="0 0 400 400" style="enable-background:new 0 0 400 400;" xml:space="preserve">
<style type="text/css">
	.st0{fill:#FFFFFF;}
	.st1{fill:#FFD200;}
	.st2{display:none;fill:#2A2A2A;}
	.st3{font-family:'GothamHTF-Black';}
	.st4{font-size:15.9016px;}
	.st5{fill:#2A2A2A;}
</style>
<title>process-3</title>
<desc>Created with Sketch.</desc>
<g id="Page-1_1_">
	<g id="process-3">
		<g id="Page-1" transform="translate(155.000000, 66.000000)">
			<g id="Group-31" transform="translate(0.000000, 0.008550)">
				<path id="Fill-22" class="st0" d="M156.1,165.2l-11.4-63.6c-0.8-4.4-4.7-7.5-9-7.5l0,0H76.9l0,0c-1.9,0-3.8,0.5-5.4,1.6
					l-9.7,6.8l-8.5,5.9l-2.9,2l-6-16.1c-1.8-4.7-7-7.1-11.8-5.4c-0.5,0.2-1,0.4-1.5,0.7c-3.7,2.2-5.5,6.9-3.9,11.1l7.7,20.5
					l4.8,12.9l0,0c0.9,2.5,3.7,3.5,6.5,1.5l0,0l0,0l7-4.9l0,0L71,118.4h5.1c0,0-13.5,84.8-12,84.8h12.3v51.3
					c0,5.6,4.5,10.1,10.1,10.1s10.1-4.5,10.1-10.1v-51.3h6.4v51.3c0,5.6,4.5,10.1,10.1,10.1s10.1-4.5,10.1-10.1v-51.3h12.3
					c1.5,0,2.5-1.2,2.3-2.7l-14.3-82.1h5.7l9,50.1c0.8,4.4,4.6,7.5,9,7.5c0.5,0,1.1,0,1.6-0.1C153.7,175,157,170.2,156.1,165.2"/>
				<path id="Fill-23" class="st0" d="M41.4,63l-9.1,1.4c-1.9,0.3-3.2,2.1-2.9,3.9l2.4,15.9c1.3-0.4,2.7-0.7,4-0.7
					c4.6,0,8.8,2.5,11,6.4c1.1-0.7,1.8-2,1.6-3.5l-3.1-20.5C45.1,64,43.3,62.7,41.4,63"/>
				<path id="Fill-24" class="st0" d="M107.6,33.4c-15.6,0-28.3,12.7-28.3,28.4S92,90.2,107.6,90.2s28.3-12.7,28.3-28.4
					C136,46.1,123.3,33.4,107.6,33.4 M93.7,53.6c-2.6,0-4.6-2.1-4.6-4.6c0-2.6,2.1-4.6,4.6-4.6c2.6,0,4.6,2.1,4.6,4.6
					C98.3,51.5,96.2,53.6,93.7,53.6 M113.9,58.2c-2.6,0-4.6-2.1-4.6-4.6c0-2.6,2.1-4.6,4.6-4.6c2.6,0,4.6,2.1,4.6,4.6
					S116.5,58.2,113.9,58.2"/>
				<path id="Fill-25" class="st0" d="M73.6,0.8H-3.8c-3.7,0-6.8,2.9-6.8,6.4v27.2c0,3.5,3,6.4,6.8,6.4h31.2l9,15.5l8.8-15.4h28.4
					c3.7,0,6.8-2.9,6.8-6.4V7.3C80.4,3.7,77.3,0.8,73.6,0.8"/>
			</g>
		</g>
	</g>
</g>
<g id="process-2_4_">
	<g>
		<rect x="88.1" y="256.1" class="st0" width="65.5" height="4.7"/>
		<rect x="88.1" y="325.9" class="st0" width="65.5" height="4.7"/>
		<path class="st0" d="M156.2,330.6h-4.6v-102c0-7.6,6.1-13.7,13.7-13.7h2.1c2.5,0,4.6,2,4.6,4.6l0,0h-6.6c-5,0-9.1,4.1-9.1,9.1
			L156.2,330.6L156.2,330.6z"/>
		<rect x="133.7" y="217.5" class="st0" width="10.1" height="111.1"/>
		<path class="st0" d="M85.6,330.6h4.6v-102c0-7.6-6.1-13.7-13.7-13.7h-2.1c-2.5,0-4.6,2-4.6,4.6l0,0h6.6c5,0,9.1,4.1,9.1,9.1
			L85.6,330.6L85.6,330.6z"/>
		<rect x="115.8" y="217.5" class="st0" width="10.2" height="111.1"/>
		<rect x="98" y="217.5" class="st0" width="10.1" height="111.1"/>
		<path class="st0" d="M69.8,219.5L69.8,219.5c0-2.5,2-4.6,4.6-4.6h46.5h46.5c2.5,0,4.6,2,4.6,4.6l0,0h-51.1H69.8z"/>
	</g>
</g>
<g id="_x33__1_">
	
		<rect x="88.1" y="247.8" transform="matrix(0.9717 -0.2362 0.2362 0.9717 -57.6254 35.8699)" class="st1" width="65.6" height="21.3"/>
	<text id="text_3_" transform="matrix(0.9717 -0.2362 0.2362 0.9717 92.7687 270.9926)" class="st2 st3 st4">#CODE</text>
	<g id="text_1_">
		<path class="st5" d="M94.1,268.5l-1.2,0.3l-0.6-2.5l1.6-0.4l-0.1-1.8l-1.4,0.3l-0.6-2.5l1.9-0.5l-0.2-2.1l2.2-0.5l0.1,2.1l2-0.5
			l-0.2-2.1l2.2-0.5l0.2,2.1l1.2-0.3l0.6,2.5l-1.6,0.4l0.1,1.8l1.4-0.3l0.6,2.5l-1.8,0.4l0.1,2.2l-2.2,0.5l-0.1-2.2l-2,0.5l0.2,2.2
			l-2.2,0.5L94.1,268.5z M98.1,264.9L98,263l-2.1,0.5l0.1,1.9L98.1,264.9z"/>
		<path class="st5" d="M103.5,262.7L103.5,262.7c-0.8-3.2,1.1-6.2,4.3-7c2.2-0.5,3.9,0,5.1,1.1l-1.8,2.3c-0.8-0.6-1.6-0.9-2.7-0.7
			c-1.5,0.4-2.3,1.9-1.9,3.5l0,0c0.4,1.6,1.8,2.6,3.3,2.3c1.1-0.3,1.7-1,2.1-1.9l2.6,1.1c-0.7,1.7-1.8,3-4.2,3.6
			C107.4,267.7,104.3,265.9,103.5,262.7z"/>
		<path class="st5" d="M114.9,259.9L114.9,259.9c-0.8-3.1,1.1-6.3,4.5-7.1s6.4,1.1,7.2,4.2l0,0c0.8,3.1-1.1,6.2-4.5,7
			C118.7,264.9,115.6,263,114.9,259.9z M123.5,257.8L123.5,257.8c-0.4-1.6-1.8-2.7-3.5-2.3c-1.6,0.4-2.4,2-2,3.6l0,0
			c0.4,1.6,1.8,2.6,3.5,2.2C123.1,261,123.9,259.4,123.5,257.8z"/>
		<path class="st5" d="M127.2,251.2l4.2-1c3.9-0.9,6.6,0.7,7.4,3.9l0,0c0.8,3.1-0.9,6-4.8,6.9l-4.1,1L127.2,251.2z M133.4,258.3
			c1.8-0.4,2.7-1.7,2.3-3.5l0,0c-0.4-1.7-1.9-2.4-3.6-2l-1.2,0.3l1.3,5.5L133.4,258.3z"/>
		<path class="st5" d="M139.4,248.2l8.7-2.1l0.6,2.5L143,250l0.4,1.6l5.2-1.3l0.6,2.4L144,254l0.4,1.7l5.8-1.4l0.6,2.5L142,259
			L139.4,248.2z"/>
	</g>
</g>
</svg>
