<?xml version="1.0" encoding="utf-8"?>
<!-- Generator: Adobe Illustrator 22.0.1, SVG Export Plug-In . SVG Version: 6.00 Build 0)  -->
<svg version="1.1" id="Layer_1" xmlns="http://www.w3.org/2000/svg" xmlns:xlink="http://www.w3.org/1999/xlink" x="0px" y="0px"
	 viewBox="0 0 400 400" style="enable-background:new 0 0 400 400;" xml:space="preserve">
<style type="text/css">
	.st0{fill:#FFFFFF;}
	.st1{fill:#FFD200;}
	.st2{display:none;fill:#2A2A2A;}
	.st3{font-family:'GothamHTF-Black';}
	.st4{font-size:15.9016px;}
	.st5{fill:#2A2A2A;}
</style>
<title>process-2</title>
<desc>Created with Sketch.</desc>
<g id="Page-1_1_">
	<g id="process-2">
		<g id="Page-1" transform="translate(166.000000, 84.000000)">
			<g id="Group-31" transform="translate(0.000000, 0.140000)">
				<path id="Fill-22" class="st0" d="M46.1,87.4v9.9L35,90.8H5c-2.3,0-4.2-1.9-4.2-4.2V69.9c0-2.3,1.9-4.2,4.2-4.2h37
					c2.3,0,4.2,1.9,4.2,4.2C46.2,69.9,46.2,87.2,46.1,87.4"/>
				<path id="Fill-23" class="st0" d="M167.5,130.3l-6-33.2l-4.7-26.3l-1.1-6.2c-0.8-4.6-4.8-7.8-9.3-7.8l0,0h-12.8h-9.2
					c-6,7-15,11.5-24.9,11.5s-18.9-4.5-24.9-11.5h-1.8l0,0c-4.5,0-8.5,3.2-9.3,7.8l-1.1,6.2l-4.7,26.3l-1.7,9.5l1.4,0.3
					c3.6,0.7,6.5,3.9,6.7,7.5l0.9,12.9c0.1,1.8-0.4,3.5-1.6,4.8c-1.1,1.2-2.6,1.8-4.3,1.8c-0.6,0-1.2-0.1-1.8-0.3l-5.7-1.6
					c0,4.5,3.2,8.4,7.8,9.3c0.6,0.1,1.1,0.1,1.7,0.1c4.5,0,8.5-3.2,9.3-7.8l9.3-51.8H85l-15,84.9c-0.3,1.5,0.8,2.8,2.3,2.8H85v53
					c0,5.8,4.7,10.4,10.4,10.4c5.8,0,10.4-4.7,10.4-10.4v-53h6.6v53c0,5.8,4.7,10.4,10.4,10.4c5.8,0,10.4-4.7,10.4-10.4v-53h12.7
					c1.6,0,2.6-1.3,2.4-2.8l-14.8-84.9h5.9l9.3,51.8c0.8,4.6,4.8,7.8,9.3,7.8c0.6,0,1.1,0,1.7-0.1
					C165,140.4,168.5,135.5,167.5,130.3"/>
				<path id="Fill-24" class="st0" d="M45.2,108.4c-1.5,0-2.3,1.2-1.8,2.8l4.2,12.9c0.1,0.2,0.2,0.5,0.3,0.7l0.2,0.3l0.2,0.4
					l0.3,0.4l0.2,0.2c0.1,0.2,0.3,0.3,0.4,0.5l0.1,0.1c0.2,0.2,0.4,0.4,0.6,0.5l0,0c0.6,0.5,1.3,0.9,2,1.1l0,0l0.3,0.1l5.9,1.6
					c0.3,0.1,0.6,0.1,0.9,0.1c1.4,0,2.4-1.1,2.3-2.8l-0.9-12.9c-0.1-2-1.8-3.9-3.8-4.2l-1.4-0.3l-9.3-1.7
					C45.6,108.4,45.4,108.4,45.2,108.4"/>
				<path id="Fill-25" class="st0" d="M99.4,6C83.2,6,70,19.1,70,35.3s13.1,29.3,29.3,29.3s29.3-13.1,29.3-29.3
					C128.7,19.1,115.6,6,99.4,6 M81.2,50.8c-2.6,0-4.8-2.1-4.8-4.8c0-2.6,2.1-4.8,4.8-4.8c2.6,0,4.8,2.1,4.8,4.8
					S83.9,50.8,81.2,50.8 M100.4,53.7c-2.6,0-4.8-2.1-4.8-4.8c0-2.6,2.1-4.8,4.8-4.8c2.6,0,4.8,2.1,4.8,4.8
					C105.2,51.6,103,53.7,100.4,53.7"/>
			</g>
		</g>
		<g id="process-2_4_">
			<g>
				<rect x="88.1" y="241.1" class="st0" width="65.5" height="4.7"/>
				<rect x="88.1" y="310.9" class="st0" width="65.5" height="4.7"/>
				<path class="st0" d="M156.2,315.6h-4.6v-102c0-7.6,6.1-13.7,13.7-13.7h2.1c2.5,0,4.6,2,4.6,4.6l0,0h-6.6c-5,0-9.1,4.1-9.1,9.1
					L156.2,315.6L156.2,315.6z"/>
				<rect x="133.7" y="202.5" class="st0" width="10.1" height="111.1"/>
				<path class="st0" d="M85.6,315.6h4.6v-102c0-7.6-6.1-13.7-13.7-13.7h-2.1c-2.5,0-4.6,2-4.6,4.6l0,0h6.6c5,0,9.1,4.1,9.1,9.1
					L85.6,315.6L85.6,315.6z"/>
				<rect x="115.8" y="202.5" class="st0" width="10.2" height="111.1"/>
				<rect x="98" y="202.5" class="st0" width="10.1" height="111.1"/>
				<path class="st0" d="M69.8,204.5L69.8,204.5c0-2.5,2-4.6,4.6-4.6h46.5h46.5c2.5,0,4.6,2,4.6,4.6l0,0h-51.1H69.8z"/>
			</g>
		</g>
	</g>
</g>
<g id="_x33__1_">
	
		<rect x="88.1" y="232.8" transform="matrix(0.9717 -0.2362 0.2362 0.9717 -54.0824 35.4455)" class="st1" width="65.6" height="21.3"/>
	<text id="text_3_" transform="matrix(0.9717 -0.2362 0.2362 0.9717 92.7687 255.9926)" class="st2 st3 st4">#CODE</text>
	<g id="text_1_">
		<path class="st5" d="M94.1,253.5l-1.2,0.3l-0.6-2.5l1.6-0.4l-0.1-1.8l-1.4,0.3l-0.6-2.5l1.9-0.5l-0.2-2.1l2.2-0.5l0.1,2.1l2-0.5
			l-0.2-2.1l2.2-0.5l0.2,2.1l1.2-0.3l0.6,2.5l-1.6,0.4l0.1,1.8l1.4-0.3l0.6,2.5l-1.8,0.4l0.1,2.2l-2.2,0.5l-0.1-2.2l-2,0.5l0.2,2.2
			l-2.2,0.5L94.1,253.5z M98.1,249.9L98,248l-2.1,0.5l0.1,1.9L98.1,249.9z"/>
		<path class="st5" d="M103.5,247.7L103.5,247.7c-0.8-3.2,1.1-6.2,4.3-7c2.2-0.5,3.9,0,5.1,1.1l-1.8,2.3c-0.8-0.6-1.6-0.9-2.7-0.7
			c-1.5,0.4-2.3,1.9-1.9,3.5l0,0c0.4,1.6,1.8,2.6,3.3,2.3c1.1-0.3,1.7-1,2.1-1.9l2.6,1.1c-0.7,1.7-1.8,3-4.2,3.6
			C107.4,252.7,104.3,250.9,103.5,247.7z"/>
		<path class="st5" d="M114.9,244.9L114.9,244.9c-0.8-3.1,1.1-6.3,4.5-7.1s6.4,1.1,7.2,4.2l0,0c0.8,3.1-1.1,6.2-4.5,7
			C118.7,249.9,115.6,248,114.9,244.9z M123.5,242.8L123.5,242.8c-0.4-1.6-1.8-2.7-3.5-2.3c-1.6,0.4-2.4,2-2,3.6l0,0
			c0.4,1.6,1.8,2.6,3.5,2.2C123.1,246,123.9,244.4,123.5,242.8z"/>
		<path class="st5" d="M127.2,236.2l4.2-1c3.9-0.9,6.6,0.7,7.4,3.9l0,0c0.8,3.1-0.9,6-4.8,6.9l-4.1,1L127.2,236.2z M133.4,243.3
			c1.8-0.4,2.7-1.7,2.3-3.5l0,0c-0.4-1.7-1.9-2.4-3.6-2l-1.2,0.3l1.3,5.5L133.4,243.3z"/>
		<path class="st5" d="M139.4,233.2l8.7-2.1l0.6,2.5L143,235l0.4,1.6l5.2-1.3l0.6,2.4L144,239l0.4,1.7l5.8-1.4l0.6,2.5L142,244
			L139.4,233.2z"/>
	</g>
</g>
</svg>
