<?xml version="1.0" encoding="utf-8"?>
<!-- Generator: Adobe Illustrator 22.1.0, SVG Export Plug-In . SVG Version: 6.00 Build 0)  -->
<svg version="1.1" id="Layer_1" xmlns="http://www.w3.org/2000/svg" xmlns:xlink="http://www.w3.org/1999/xlink" x="0px" y="0px"
	 viewBox="0 0 400 400" style="enable-background:new 0 0 400 400;" xml:space="preserve">
<style type="text/css">
	.st0{fill:#FFFFFF;}
	.st1{opacity:0.5;fill:#FFFFFF;}
</style>
<title>process-2</title>
<desc>Created with Sketch.</desc>
<g id="Page-1_1_">
	<g id="process-2">
		<g id="Page-1" transform="translate(166.000000, 84.000000)">
			<g id="Group-31" transform="translate(0.000000, 0.140000)">
				<path id="Fill-22" class="st0" d="M46.1,87.4v9.9L35,90.8H5c-2.3,0-4.2-1.9-4.2-4.2V69.9c0-2.3,1.9-4.2,4.2-4.2h37
					c2.3,0,4.2,1.9,4.2,4.2C46.2,69.9,46.2,87.2,46.1,87.4"/>
				<path id="Fill-23" class="st0" d="M167.5,130.3l-6-33.2l-4.7-26.3l-1.1-6.2c-0.8-4.6-4.8-7.8-9.3-7.8l0,0h-12.8h-9.2
					c-6,7-15,11.5-24.9,11.5s-18.9-4.5-24.9-11.5h-1.8l0,0c-4.5,0-8.5,3.2-9.3,7.8l-1.1,6.2l-4.7,26.3l-1.7,9.5l1.4,0.3
					c3.6,0.7,6.5,3.9,6.7,7.5l0.9,12.9c0.1,1.8-0.4,3.5-1.6,4.8c-1.1,1.2-2.6,1.8-4.3,1.8c-0.6,0-1.2-0.1-1.8-0.3l-5.7-1.6
					c0,4.5,3.2,8.4,7.8,9.3c0.6,0.1,1.1,0.1,1.7,0.1c4.5,0,8.5-3.2,9.3-7.8l9.3-51.8H85l-15,84.9c-0.3,1.5,0.8,2.8,2.3,2.8H85v53
					c0,5.8,4.7,10.4,10.4,10.4c5.8,0,10.4-4.7,10.4-10.4v-53h6.6v53c0,5.8,4.7,10.4,10.4,10.4c5.8,0,10.4-4.7,10.4-10.4v-53h12.7
					c1.6,0,2.6-1.3,2.4-2.8l-14.8-84.9h5.9l9.3,51.8c0.8,4.6,4.8,7.8,9.3,7.8c0.6,0,1.1,0,1.7-0.1
					C165,140.4,168.5,135.5,167.5,130.3"/>
				<path id="Fill-24" class="st0" d="M45.2,108.4c-1.5,0-2.3,1.2-1.8,2.8l4.2,12.9c0.1,0.2,0.2,0.5,0.3,0.7l0.2,0.3l0.2,0.4
					l0.3,0.4l0.2,0.2c0.1,0.2,0.3,0.3,0.4,0.5l0.1,0.1c0.2,0.2,0.4,0.4,0.6,0.5l0,0c0.6,0.5,1.3,0.9,2,1.1l0,0l0.3,0.1l5.9,1.6
					c0.3,0.1,0.6,0.1,0.9,0.1c1.4,0,2.4-1.1,2.3-2.8l-0.9-12.9c-0.1-2-1.8-3.9-3.8-4.2l-1.4-0.3l-9.3-1.7
					C45.6,108.4,45.4,108.4,45.2,108.4"/>
				<path id="Fill-25" class="st0" d="M99.4,6C83.2,6,70,19.1,70,35.3s13.1,29.3,29.3,29.3s29.3-13.1,29.3-29.3
					C128.7,19.1,115.6,6,99.4,6 M81.2,50.8c-2.6,0-4.8-2.1-4.8-4.8c0-2.6,2.1-4.8,4.8-4.8c2.6,0,4.8,2.1,4.8,4.8
					S83.9,50.8,81.2,50.8 M100.4,53.7c-2.6,0-4.8-2.1-4.8-4.8c0-2.6,2.1-4.8,4.8-4.8c2.6,0,4.8,2.1,4.8,4.8
					C105.2,51.6,103,53.7,100.4,53.7"/>
			</g>
		</g>
	</g>
</g>
<g>
	<path class="st0" d="M156.8,317.3H76.7l0,0c0-1.5,1.2-2.8,2.8-2.8H154C155.6,314.6,156.8,315.8,156.8,317.3L156.8,317.3z"/>
	<path class="st0" d="M136.8,313.1H96.7l0,0c0-3.1,2.5-5.6,5.6-5.6h28.9C134.3,307.5,136.8,310,136.8,313.1L136.8,313.1z"/>
	<rect x="106.7" y="247.1" class="st0" width="20" height="58.9"/>
	<rect x="106.7" y="215.2" class="st0" width="20" height="8.9"/>
	<rect x="106.7" y="225.6" class="st1" width="20" height="20"/>
	<path class="st0" d="M128.2,213.7h-23c-0.8,0-1.5-0.7-1.5-1.5v-22.4c0-0.8,0.7-1.5,1.5-1.5h23c0.8,0,1.5,0.7,1.5,1.5v22.4
		C129.7,213,129.1,213.7,128.2,213.7z"/>
	<rect x="131.2" y="192.8" class="st0" width="7.5" height="16.4"/>
	<path class="st1" d="M152.1,209.2L152.1,209.2v-16.4l0,0c1.7,0,3,1.3,3,3v10.4C155.1,207.9,153.8,209.2,152.1,209.2z"/>
	<path class="st1" d="M144.7,213.7h-3c-0.8,0-1.5-0.7-1.5-1.5v-22.4c0-0.8,0.7-1.5,1.5-1.5h3V213.7z"/>
	<path class="st1" d="M149.1,213.7h-3v-25.3h3c0.8,0,1.5,0.7,1.5,1.5v22.4C150.6,213,150,213.7,149.1,213.7z"/>
	<rect x="105.6" y="185.3" class="st0" width="22.4" height="1.5"/>
	<path class="st0" d="M123.5,177.9H110c-0.8,0-1.5,0.7-1.5,1.5v4.5h16.4v-4.5C124.9,178.5,124.3,177.9,123.5,177.9z"/>
	<rect x="113" y="170.4" class="st0" width="7.5" height="1.5"/>
	<rect x="114.5" y="173.4" class="st0" width="4.5" height="3"/>
	<path class="st0" d="M114.5,168.9L114.5,168.9c0-0.9,0.7-1.5,1.5-1.5h1.5c0.8,0,1.5,0.7,1.5,1.5v0H114.5z"/>
	<g>
		<path class="st0" d="M142.8,224.2c0,0-0.1,0-0.1,0c-0.4-0.1-0.8-0.2-1.2-0.3c-0.4-0.1-0.6-0.5-0.5-0.9c0.1-0.4,0.5-0.6,0.9-0.5
			c0.4,0.1,0.7,0.2,1.1,0.3c0.4,0.1,0.7,0.5,0.6,0.9C143.5,223.9,143.1,224.2,142.8,224.2z M146.3,224.2c-0.4,0-0.7-0.3-0.7-0.6
			c-0.1-0.4,0.2-0.8,0.6-0.9c0.4-0.1,0.7-0.2,1.1-0.3c0.4-0.1,0.8,0.1,0.9,0.5c0.1,0.4-0.1,0.8-0.5,0.9c-0.4,0.1-0.8,0.2-1.2,0.3
			C146.4,224.2,146.4,224.2,146.3,224.2z M138.5,222.3c-0.2,0-0.3,0-0.5-0.2c-0.3-0.3-0.7-0.5-1-0.8c-0.3-0.3-0.3-0.8,0-1.1
			c0.3-0.3,0.8-0.3,1.1,0c0.3,0.3,0.6,0.5,0.8,0.7c0.3,0.2,0.4,0.7,0.1,1C138.9,222.2,138.7,222.3,138.5,222.3z M150.7,222.3
			c-0.2,0-0.4-0.1-0.6-0.3c-0.2-0.3-0.2-0.8,0.1-1c0.3-0.2,0.6-0.5,0.8-0.7c0.3-0.3,0.8-0.3,1.1,0c0.3,0.3,0.3,0.8,0,1.1
			c-0.3,0.3-0.6,0.6-1,0.8C151,222.2,150.8,222.3,150.7,222.3z M135.4,218.7c-0.3,0-0.5-0.1-0.7-0.4c-0.2-0.4-0.4-0.8-0.5-1.1
			c-0.2-0.4,0-0.8,0.4-1c0.4-0.2,0.8,0,1,0.4c0.1,0.3,0.3,0.7,0.5,1c0.2,0.4,0.1,0.8-0.3,1C135.6,218.6,135.5,218.7,135.4,218.7z
			 M153.7,218.7c-0.1,0-0.2,0-0.4-0.1c-0.4-0.2-0.5-0.6-0.3-1c0.2-0.3,0.3-0.7,0.5-1c0.2-0.4,0.6-0.6,1-0.4c0.4,0.2,0.6,0.6,0.4,1
			c-0.2,0.4-0.3,0.8-0.5,1.1C154.2,218.5,154,218.7,153.7,218.7z M134,214.1c-0.4,0-0.7-0.3-0.7-0.7c0-0.4-0.1-0.8-0.1-1.3
			c0-0.4,0.3-0.7,0.7-0.7c0.4,0,0.7,0.3,0.7,0.7c0,0.4,0,0.8,0.1,1.1C134.8,213.7,134.5,214.1,134,214.1
			C134.1,214.1,134.1,214.1,134,214.1z M155.1,214.1C155.1,214.1,155,214.1,155.1,214.1c-0.5,0-0.8-0.4-0.7-0.8
			c0-0.4,0.1-0.7,0.1-1.1c0-0.4,0.3-0.7,0.7-0.7c0,0,0,0,0,0c0.4,0,0.7,0.3,0.7,0.7c0,0.4,0,0.8-0.1,1.2
			C155.8,213.8,155.5,214.1,155.1,214.1z"/>
	</g>
	<rect x="94.8" y="192.8" class="st0" width="7.5" height="16.4"/>
	<path class="st1" d="M81.4,209.2L81.4,209.2l0-16.4h0c-1.7,0-3,1.3-3,3v10.4C78.4,207.9,79.7,209.2,81.4,209.2z"/>
	<path class="st1" d="M88.8,213.7h3c0.8,0,1.5-0.7,1.5-1.5v-22.4c0-0.8-0.7-1.5-1.5-1.5h-3V213.7z"/>
	<path class="st1" d="M84.3,213.7h3v-25.3h-3c-0.8,0-1.5,0.7-1.5,1.5v22.4C82.9,213,83.5,213.7,84.3,213.7z"/>
	<g>
		<path class="st0" d="M90.7,224.2c-0.4,0-0.7-0.3-0.7-0.6c-0.1-0.4,0.2-0.8,0.6-0.9c0.4-0.1,0.7-0.2,1.1-0.3
			c0.4-0.1,0.8,0.1,0.9,0.5c0.1,0.4-0.1,0.8-0.5,0.9c-0.4,0.1-0.8,0.2-1.2,0.3C90.8,224.2,90.7,224.2,90.7,224.2z M87.1,224.2
			c0,0-0.1,0-0.1,0c-0.4-0.1-0.8-0.2-1.2-0.3c-0.4-0.1-0.6-0.5-0.5-0.9c0.1-0.4,0.5-0.6,0.9-0.5c0.4,0.1,0.7,0.2,1.1,0.3
			c0.4,0.1,0.7,0.5,0.6,0.9C87.8,223.9,87.5,224.2,87.1,224.2z M95,222.3c-0.2,0-0.4-0.1-0.6-0.3c-0.2-0.3-0.2-0.8,0.1-1
			c0.3-0.2,0.6-0.5,0.8-0.7c0.3-0.3,0.8-0.3,1.1,0c0.3,0.3,0.3,0.8,0,1.1c-0.3,0.3-0.6,0.6-1,0.8C95.3,222.2,95.2,222.3,95,222.3z
			 M82.8,222.3c-0.2,0-0.3,0-0.5-0.2c-0.3-0.3-0.7-0.5-1-0.8c-0.3-0.3-0.3-0.8,0-1.1c0.3-0.3,0.8-0.3,1.1,0c0.3,0.3,0.6,0.5,0.8,0.7
			c0.3,0.2,0.4,0.7,0.1,1C83.3,222.2,83,222.3,82.8,222.3z M98.1,218.7c-0.1,0-0.2,0-0.4-0.1c-0.4-0.2-0.5-0.6-0.3-1
			c0.2-0.3,0.3-0.7,0.5-1c0.2-0.4,0.6-0.6,1-0.4c0.4,0.2,0.6,0.6,0.4,1c-0.2,0.4-0.3,0.8-0.5,1.1C98.6,218.5,98.3,218.7,98.1,218.7z
			 M79.8,218.7c-0.3,0-0.5-0.1-0.7-0.4c-0.2-0.4-0.4-0.8-0.5-1.1c-0.2-0.4,0-0.8,0.4-1c0.4-0.2,0.8,0,1,0.4c0.1,0.3,0.3,0.7,0.5,1
			c0.2,0.4,0.1,0.8-0.3,1C80,218.6,79.9,218.7,79.8,218.7z M99.4,214.1C99.4,214.1,99.4,214.1,99.4,214.1c-0.5,0-0.8-0.4-0.7-0.8
			c0-0.4,0.1-0.7,0.1-1.1c0-0.4,0.3-0.7,0.7-0.7c0.4,0,0.7,0.3,0.7,0.7c0,0.4,0,0.8-0.1,1.3C100.2,213.8,99.8,214.1,99.4,214.1z
			 M78.4,214.1c-0.4,0-0.7-0.3-0.7-0.7c0-0.4-0.1-0.8-0.1-1.2c0-0.4,0.3-0.7,0.7-0.7c0.4,0,0.7,0.3,0.7,0.7c0,0.4,0,0.7,0.1,1.1
			C79.2,213.7,78.9,214.1,78.4,214.1C78.5,214.1,78.4,214.1,78.4,214.1z"/>
	</g>
</g>
</svg>
