<?xml version="1.0" encoding="utf-8"?>
<!-- Generator: Adobe Illustrator 22.1.0, SVG Export Plug-In . SVG Version: 6.00 Build 0)  -->
<svg version="1.1" id="Layer_1" xmlns="http://www.w3.org/2000/svg" xmlns:xlink="http://www.w3.org/1999/xlink" x="0px" y="0px"
	 viewBox="0 0 400 400" style="enable-background:new 0 0 400 400;" xml:space="preserve">
<style type="text/css">
	.st0{display:none;}
	.st1{display:inline;}
	.st2{fill:#FFFFFF;}
	.st3{opacity:0.5;fill:#FFFFFF;}
</style>
<g id="Layer_2" class="st0">
	<rect class="st1" width="400" height="400"/>
</g>
<title>process-1</title>
<desc>Created with Sketch.</desc>
<g id="Page-1_1_">
	<g id="process-1">
		<g id="Group" transform="translate(67.000000, 73.000000)">
			<g id="Page-1">
				<g id="Group-30" transform="translate(0.000000, 0.778000)">
					<g id="Clip-9">
					</g>
					<path id="Fill-23" class="st2" d="M195.3,2.7c-16.6,0-30,13.7-30,30.7s13.4,30.7,30,30.7s30-13.7,30-30.7S211.9,2.7,195.3,2.7
						 M176.8,44.9c-2.7,0-4.9-2.2-4.9-5s2.2-5,4.9-5s4.9,2.2,4.9,5C181.7,42.6,179.5,44.9,176.8,44.9 M199.2,47.8
						c-2.7,0-4.9-2.2-4.9-5s2.2-5,4.9-5s4.9,2.2,4.9,5C204.1,45.5,201.9,47.8,199.2,47.8"/>
				</g>
			</g>
		</g>
	</g>
	<path id="Fill-22" class="st2" d="M309,151.6c-0.8-4.8-4.9-8.2-9.6-8.1h-62.3c-2,0-4,0.5-5.7,1.8l-45.6,32.4L171,188.2
		c-1.4,1-1.7,2.9-0.8,4.3c0.6,0.9,1.5,1.3,2.5,1.3c0.6,0,1.2-0.2,1.7-0.6l7.4-5.3c0.3,1.2,0.8,2.4,1.5,3.4c1.9,2.8,4.9,4.2,8,4.2
		c1.9,0,3.8-0.6,5.5-1.8l34.1-24.2h5.4l-15.2,88.8c-0.3,1.6,0.8,2.9,2.4,2.9h13v55.5c0,6,4.8,10.9,10.7,10.9s10.7-4.9,10.7-10.9
		v-55.5h6.8v55.5c0,6,4.8,10.9,10.7,10.9c5.9,0,10.7-4.9,10.7-10.9v-55.5h13c1.6,0,2.7-1.3,2.4-2.9l-15.2-88.8h6l9.5,54.2
		c0.8,4.8,4.9,8.2,9.5,8.2c0.6,0,1.1-0.1,1.7-0.2c5.3-1,8.8-6.1,7.8-11.5L309,151.6z"/>
</g>
<g>
	<path class="st2" d="M159.8,327.6H79.7l0,0c0-1.5,1.2-2.8,2.8-2.8H157C158.6,324.8,159.8,326.1,159.8,327.6L159.8,327.6z"/>
	<path class="st2" d="M139.8,323.3H99.7l0,0c0-3.1,2.5-5.6,5.6-5.6h28.9C137.3,317.8,139.8,320.3,139.8,323.3L139.8,323.3z"/>
	<rect x="109.7" y="257.4" class="st2" width="20" height="58.9"/>
	<rect x="109.7" y="225.4" class="st2" width="20" height="8.9"/>
	<rect x="109.7" y="235.9" class="st3" width="20" height="20"/>
	<path class="st2" d="M131.2,223.9h-23c-0.8,0-1.5-0.7-1.5-1.5v-22.4c0-0.8,0.7-1.5,1.5-1.5h23c0.8,0,1.5,0.7,1.5,1.5v22.4
		C132.7,223.3,132.1,223.9,131.2,223.9z"/>
	<rect x="134.2" y="203.1" class="st2" width="7.5" height="16.4"/>
	<path class="st3" d="M155.1,219.5L155.1,219.5v-16.4l0,0c1.7,0,3,1.3,3,3v10.4C158.1,218.1,156.8,219.5,155.1,219.5z"/>
	<path class="st3" d="M147.7,223.9h-3c-0.8,0-1.5-0.7-1.5-1.5v-22.4c0-0.8,0.7-1.5,1.5-1.5h3V223.9z"/>
	<path class="st3" d="M152.1,223.9h-3v-25.3h3c0.8,0,1.5,0.7,1.5,1.5v22.4C153.6,223.3,153,223.9,152.1,223.9z"/>
	<rect x="108.6" y="195.6" class="st2" width="22.4" height="1.5"/>
	<path class="st2" d="M126.5,188.1H113c-0.8,0-1.5,0.7-1.5,1.5v4.5h16.4v-4.5C127.9,188.8,127.3,188.1,126.5,188.1z"/>
	<rect x="116" y="180.6" class="st2" width="7.5" height="1.5"/>
	<rect x="117.5" y="183.6" class="st2" width="4.5" height="3"/>
	<path class="st2" d="M117.5,179.1L117.5,179.1c0-0.9,0.7-1.5,1.5-1.5h1.5c0.8,0,1.5,0.7,1.5,1.5v0H117.5z"/>
	<g>
		<path class="st2" d="M145.8,234.5c0,0-0.1,0-0.1,0c-0.4-0.1-0.8-0.2-1.2-0.3c-0.4-0.1-0.6-0.5-0.5-0.9c0.1-0.4,0.5-0.6,0.9-0.5
			c0.4,0.1,0.7,0.2,1.1,0.3c0.4,0.1,0.7,0.5,0.6,0.9C146.5,234.2,146.1,234.5,145.8,234.5z M149.3,234.4c-0.4,0-0.7-0.3-0.7-0.6
			c-0.1-0.4,0.2-0.8,0.6-0.9c0.4-0.1,0.7-0.2,1.1-0.3c0.4-0.1,0.8,0.1,0.9,0.5c0.1,0.4-0.1,0.8-0.5,0.9c-0.4,0.1-0.8,0.2-1.2,0.3
			C149.4,234.4,149.4,234.4,149.3,234.4z M141.5,232.5c-0.2,0-0.3,0-0.5-0.2c-0.3-0.3-0.7-0.5-1-0.8c-0.3-0.3-0.3-0.8,0-1.1
			c0.3-0.3,0.8-0.3,1.1,0c0.3,0.3,0.6,0.5,0.8,0.7c0.3,0.2,0.4,0.7,0.1,1C141.9,232.4,141.7,232.5,141.5,232.5z M153.7,232.5
			c-0.2,0-0.4-0.1-0.6-0.3c-0.2-0.3-0.2-0.8,0.1-1c0.3-0.2,0.6-0.5,0.8-0.7c0.3-0.3,0.8-0.3,1.1,0c0.3,0.3,0.3,0.8,0,1.1
			c-0.3,0.3-0.6,0.6-1,0.8C154,232.5,153.8,232.5,153.7,232.5z M138.4,228.9c-0.3,0-0.5-0.1-0.7-0.4c-0.2-0.4-0.4-0.8-0.5-1.1
			c-0.2-0.4,0-0.8,0.4-1c0.4-0.2,0.8,0,1,0.4c0.1,0.3,0.3,0.7,0.5,1c0.2,0.4,0.1,0.8-0.3,1C138.6,228.9,138.5,228.9,138.4,228.9z
			 M156.7,228.9c-0.1,0-0.2,0-0.4-0.1c-0.4-0.2-0.5-0.6-0.3-1c0.2-0.3,0.3-0.7,0.5-1c0.2-0.4,0.6-0.6,1-0.4c0.4,0.2,0.6,0.6,0.4,1
			c-0.2,0.4-0.3,0.8-0.5,1.1C157.2,228.8,157,228.9,156.7,228.9z M137,224.4c-0.4,0-0.7-0.3-0.7-0.7c0-0.4-0.1-0.8-0.1-1.3
			c0-0.4,0.3-0.7,0.7-0.7c0.4,0,0.7,0.3,0.7,0.7c0,0.4,0,0.8,0.1,1.1C137.8,224,137.5,224.3,137,224.4
			C137.1,224.4,137.1,224.4,137,224.4z M158.1,224.4C158.1,224.4,158,224.4,158.1,224.4c-0.5,0-0.8-0.4-0.7-0.8
			c0-0.4,0.1-0.7,0.1-1.1c0-0.4,0.3-0.7,0.7-0.7c0,0,0,0,0,0c0.4,0,0.7,0.3,0.7,0.7c0,0.4,0,0.8-0.1,1.2
			C158.8,224.1,158.5,224.4,158.1,224.4z"/>
	</g>
	<rect x="97.8" y="203.1" class="st2" width="7.5" height="16.4"/>
	<path class="st3" d="M84.4,219.5L84.4,219.5l0-16.4h0c-1.7,0-3,1.3-3,3v10.4C81.4,218.1,82.7,219.5,84.4,219.5z"/>
	<path class="st3" d="M91.8,223.9h3c0.8,0,1.5-0.7,1.5-1.5v-22.4c0-0.8-0.7-1.5-1.5-1.5h-3V223.9z"/>
	<path class="st3" d="M87.3,223.9h3v-25.3h-3c-0.8,0-1.5,0.7-1.5,1.5v22.4C85.9,223.3,86.5,223.9,87.3,223.9z"/>
	<g>
		<path class="st2" d="M93.7,234.5c-0.4,0-0.7-0.3-0.7-0.6c-0.1-0.4,0.2-0.8,0.6-0.9c0.4-0.1,0.7-0.2,1.1-0.3
			c0.4-0.1,0.8,0.1,0.9,0.5c0.1,0.4-0.1,0.8-0.5,0.9c-0.4,0.1-0.8,0.2-1.2,0.3C93.8,234.4,93.7,234.5,93.7,234.5z M90.1,234.4
			c0,0-0.1,0-0.1,0c-0.4-0.1-0.8-0.2-1.2-0.3c-0.4-0.1-0.6-0.5-0.5-0.9c0.1-0.4,0.5-0.6,0.9-0.5c0.4,0.1,0.7,0.2,1.1,0.3
			c0.4,0.1,0.7,0.5,0.6,0.9C90.8,234.2,90.5,234.4,90.1,234.4z M98,232.5c-0.2,0-0.4-0.1-0.6-0.3c-0.2-0.3-0.2-0.8,0.1-1
			c0.3-0.2,0.6-0.5,0.8-0.7c0.3-0.3,0.8-0.3,1.1,0c0.3,0.3,0.3,0.8,0,1.1c-0.3,0.3-0.6,0.6-1,0.8C98.3,232.5,98.2,232.5,98,232.5z
			 M85.8,232.5c-0.2,0-0.3,0-0.5-0.2c-0.3-0.3-0.7-0.5-1-0.8c-0.3-0.3-0.3-0.8,0-1.1c0.3-0.3,0.8-0.3,1.1,0c0.3,0.3,0.6,0.5,0.8,0.7
			c0.3,0.2,0.4,0.7,0.1,1C86.3,232.4,86,232.5,85.8,232.5z M101.1,228.9c-0.1,0-0.2,0-0.4-0.1c-0.4-0.2-0.5-0.6-0.3-1
			c0.2-0.3,0.3-0.7,0.5-1c0.2-0.4,0.6-0.6,1-0.4c0.4,0.2,0.6,0.6,0.4,1c-0.2,0.4-0.3,0.8-0.5,1.1
			C101.6,228.8,101.3,228.9,101.1,228.9z M82.8,228.9c-0.3,0-0.5-0.1-0.7-0.4c-0.2-0.4-0.4-0.8-0.5-1.1c-0.2-0.4,0-0.8,0.4-1
			c0.4-0.2,0.8,0,1,0.4c0.1,0.3,0.3,0.7,0.5,1c0.2,0.4,0.1,0.8-0.3,1C83,228.9,82.9,228.9,82.8,228.9z M102.4,224.4
			C102.4,224.4,102.4,224.4,102.4,224.4c-0.5,0-0.8-0.4-0.7-0.8c0-0.4,0.1-0.7,0.1-1.1c0-0.4,0.3-0.7,0.7-0.7c0.4,0,0.7,0.3,0.7,0.7
			c0,0.4,0,0.8-0.1,1.3C103.2,224.1,102.8,224.4,102.4,224.4z M81.4,224.4c-0.4,0-0.7-0.3-0.7-0.7c0-0.4-0.1-0.8-0.1-1.2
			c0-0.4,0.3-0.7,0.7-0.7c0.4,0,0.7,0.3,0.7,0.7c0,0.4,0,0.7,0.1,1.1C82.2,224,81.9,224.3,81.4,224.4
			C81.5,224.4,81.4,224.4,81.4,224.4z"/>
	</g>
</g>
</svg>
