<?xml version="1.0" encoding="utf-8"?>
<!-- Generator: Adobe Illustrator 22.1.0, SVG Export Plug-In . SVG Version: 6.00 Build 0)  -->
<svg version="1.1" id="Layer_1" xmlns="http://www.w3.org/2000/svg" xmlns:xlink="http://www.w3.org/1999/xlink" x="0px" y="0px"
	 viewBox="0 0 400 400" style="enable-background:new 0 0 400 400;" xml:space="preserve">
<style type="text/css">
	.st0{fill:#FFFFFF;}
	.st1{opacity:0.5;fill:#FFFFFF;}
</style>
<g id="Layer_2">
</g>
<title>process-3</title>
<desc>Created with Sketch.</desc>
<g id="Page-1_1_">
	<g id="process-3">
		<g id="Page-1" transform="translate(155.000000, 66.000000)">
			<g id="Group-31" transform="translate(0.000000, 0.008550)">
				<path id="Fill-22" class="st0" d="M156.1,165.2l-11.4-63.6c-0.8-4.4-4.7-7.5-9-7.5l0,0H76.9l0,0c-1.9,0-3.8,0.5-5.4,1.6
					l-9.7,6.8l-8.5,5.9l-2.9,2l-6-16.1c-1.8-4.7-7-7.1-11.8-5.4c-0.5,0.2-1,0.4-1.5,0.7c-3.7,2.2-5.5,6.9-3.9,11.1l7.7,20.5
					l4.8,12.9l0,0c0.9,2.5,3.7,3.5,6.5,1.5l0,0l0,0l7-4.9l0,0L71,118.4h5.1c0,0-13.5,84.8-12,84.8h12.3v51.3
					c0,5.6,4.5,10.1,10.1,10.1s10.1-4.5,10.1-10.1v-51.3h6.4v51.3c0,5.6,4.5,10.1,10.1,10.1s10.1-4.5,10.1-10.1v-51.3h12.3
					c1.5,0,2.5-1.2,2.3-2.7l-14.3-82.1h5.7l9,50.1c0.8,4.4,4.6,7.5,9,7.5c0.5,0,1.1,0,1.6-0.1C153.7,175,157,170.2,156.1,165.2"/>
				<path id="Fill-23" class="st0" d="M41.4,63l-9.1,1.4c-1.9,0.3-3.2,2.1-2.9,3.9l2.4,15.9c1.3-0.4,2.7-0.7,4-0.7
					c4.6,0,8.8,2.5,11,6.4c1.1-0.7,1.8-2,1.6-3.5l-3.1-20.5C45.1,64,43.3,62.7,41.4,63"/>
				<path id="Fill-24" class="st0" d="M107.6,33.4c-15.6,0-28.3,12.7-28.3,28.4S92,90.2,107.6,90.2s28.3-12.7,28.3-28.4
					C136,46.1,123.3,33.4,107.6,33.4 M93.7,53.6c-2.6,0-4.6-2.1-4.6-4.6c0-2.6,2.1-4.6,4.6-4.6c2.6,0,4.6,2.1,4.6,4.6
					C98.3,51.5,96.2,53.6,93.7,53.6 M113.9,58.2c-2.6,0-4.6-2.1-4.6-4.6c0-2.6,2.1-4.6,4.6-4.6c2.6,0,4.6,2.1,4.6,4.6
					S116.5,58.2,113.9,58.2"/>
				<path id="Fill-25" class="st0" d="M73.6,0.8H-3.8c-3.7,0-6.8,2.9-6.8,6.4v27.2c0,3.5,3,6.4,6.8,6.4h31.2l9,15.5l8.8-15.4h28.4
					c3.7,0,6.8-2.9,6.8-6.4V7.3C80.4,3.7,77.3,0.8,73.6,0.8"/>
			</g>
		</g>
	</g>
</g>
<g>
	<path class="st0" d="M167.2,330.6H87l0,0c0-1.5,1.2-2.8,2.8-2.8h74.6C165.9,327.8,167.2,329.1,167.2,330.6L167.2,330.6z"/>
	<path class="st0" d="M147.1,326.3h-40.1l0,0c0-3.1,2.5-5.6,5.6-5.6h28.9C144.6,320.8,147.1,323.3,147.1,326.3L147.1,326.3z"/>
	<rect x="117.1" y="260.4" class="st0" width="20" height="58.9"/>
	<rect x="117.1" y="228.4" class="st0" width="20" height="8.9"/>
	<rect x="117.1" y="238.9" class="st1" width="20" height="20"/>
	<path class="st0" d="M138.6,227h-23c-0.8,0-1.5-0.7-1.5-1.5v-22.4c0-0.8,0.7-1.5,1.5-1.5h23c0.8,0,1.5,0.7,1.5,1.5v22.4
		C140.1,226.3,139.4,227,138.6,227z"/>
	<rect x="141.6" y="206.1" class="st0" width="7.5" height="16.4"/>
	<path class="st1" d="M162.5,222.5L162.5,222.5v-16.4l0,0c1.7,0,3,1.3,3,3v10.4C165.5,221.1,164.1,222.5,162.5,222.5z"/>
	<path class="st1" d="M155,227h-3c-0.8,0-1.5-0.7-1.5-1.5v-22.4c0-0.8,0.7-1.5,1.5-1.5h3V227z"/>
	<path class="st1" d="M159.5,227h-3v-25.3h3c0.8,0,1.5,0.7,1.5,1.5v22.4C161,226.3,160.3,227,159.5,227z"/>
	<rect x="115.9" y="198.6" class="st0" width="22.4" height="1.5"/>
	<path class="st0" d="M133.8,191.1h-13.4c-0.8,0-1.5,0.7-1.5,1.5v4.5h16.4v-4.5C135.3,191.8,134.6,191.1,133.8,191.1z"/>
	<rect x="123.4" y="183.6" class="st0" width="7.5" height="1.5"/>
	<rect x="124.9" y="186.6" class="st0" width="4.5" height="3"/>
	<path class="st0" d="M124.9,182.1L124.9,182.1c0-0.9,0.7-1.5,1.5-1.5h1.5c0.8,0,1.5,0.7,1.5,1.5v0H124.9z"/>
	<g>
		<path class="st0" d="M153.1,237.5c0,0-0.1,0-0.1,0c-0.4-0.1-0.8-0.2-1.2-0.3c-0.4-0.1-0.6-0.5-0.5-0.9c0.1-0.4,0.5-0.6,0.9-0.5
			c0.4,0.1,0.7,0.2,1.1,0.3c0.4,0.1,0.7,0.5,0.6,0.9C153.8,237.2,153.5,237.5,153.1,237.5z M156.7,237.5c-0.4,0-0.7-0.3-0.7-0.6
			c-0.1-0.4,0.2-0.8,0.6-0.9c0.4-0.1,0.7-0.2,1.1-0.3c0.4-0.1,0.8,0.1,0.9,0.5c0.1,0.4-0.1,0.8-0.5,0.9c-0.4,0.1-0.8,0.2-1.2,0.3
			C156.8,237.5,156.7,237.5,156.7,237.5z M148.8,235.5c-0.2,0-0.3,0-0.5-0.2c-0.3-0.3-0.7-0.5-1-0.8c-0.3-0.3-0.3-0.8,0-1.1
			c0.3-0.3,0.8-0.3,1.1,0c0.3,0.3,0.6,0.5,0.8,0.7c0.3,0.2,0.4,0.7,0.1,1C149.3,235.4,149.1,235.5,148.8,235.5z M161,235.5
			c-0.2,0-0.4-0.1-0.6-0.3c-0.2-0.3-0.2-0.8,0.1-1c0.3-0.2,0.6-0.5,0.8-0.7c0.3-0.3,0.8-0.3,1.1,0c0.3,0.3,0.3,0.8,0,1.1
			c-0.3,0.3-0.6,0.6-1,0.8C161.3,235.5,161.2,235.5,161,235.5z M145.8,231.9c-0.3,0-0.5-0.1-0.7-0.4c-0.2-0.4-0.4-0.8-0.5-1.1
			c-0.2-0.4,0-0.8,0.4-1c0.4-0.2,0.8,0,1,0.4c0.1,0.3,0.3,0.7,0.5,1c0.2,0.4,0.1,0.8-0.3,1C146,231.9,145.9,231.9,145.8,231.9z
			 M164.1,231.9c-0.1,0-0.2,0-0.4-0.1c-0.4-0.2-0.5-0.6-0.3-1c0.2-0.3,0.3-0.7,0.5-1c0.2-0.4,0.6-0.6,1-0.4c0.4,0.2,0.6,0.6,0.4,1
			c-0.2,0.4-0.3,0.8-0.5,1.1C164.6,231.8,164.3,231.9,164.1,231.9z M144.4,227.4c-0.4,0-0.7-0.3-0.7-0.7c0-0.4-0.1-0.8-0.1-1.3
			c0-0.4,0.3-0.7,0.7-0.7c0.4,0,0.7,0.3,0.7,0.7c0,0.4,0,0.8,0.1,1.1C145.2,227,144.9,227.4,144.4,227.4
			C144.4,227.4,144.4,227.4,144.4,227.4z M165.4,227.4C165.4,227.4,165.4,227.4,165.4,227.4c-0.5,0-0.8-0.4-0.7-0.8
			c0-0.4,0.1-0.7,0.1-1.1c0-0.4,0.3-0.7,0.7-0.7c0,0,0,0,0,0c0.4,0,0.7,0.3,0.7,0.7c0,0.4,0,0.8-0.1,1.2
			C166.1,227.1,165.8,227.4,165.4,227.4z"/>
	</g>
	<rect x="105.1" y="206.1" class="st0" width="7.5" height="16.4"/>
	<path class="st1" d="M91.7,222.5L91.7,222.5v-16.4l0,0c-1.7,0-3,1.3-3,3v10.4C88.7,221.1,90.1,222.5,91.7,222.5z"/>
	<path class="st1" d="M99.2,227h3c0.8,0,1.5-0.7,1.5-1.5v-22.4c0-0.8-0.7-1.5-1.5-1.5h-3V227z"/>
	<path class="st1" d="M94.7,227h3v-25.3h-3c-0.8,0-1.5,0.7-1.5,1.5v22.4C93.2,226.3,93.9,227,94.7,227z"/>
	<g>
		<path class="st0" d="M101.1,237.5c-0.4,0-0.7-0.3-0.7-0.6c-0.1-0.4,0.2-0.8,0.6-0.9c0.4-0.1,0.7-0.2,1.1-0.3
			c0.4-0.1,0.8,0.1,0.9,0.5c0.1,0.4-0.1,0.8-0.5,0.9c-0.4,0.1-0.8,0.2-1.2,0.3C101.1,237.5,101.1,237.5,101.1,237.5z M97.5,237.5
			c0,0-0.1,0-0.1,0c-0.4-0.1-0.8-0.2-1.2-0.3c-0.4-0.1-0.6-0.5-0.5-0.9c0.1-0.4,0.5-0.6,0.9-0.5c0.4,0.1,0.7,0.2,1.1,0.3
			c0.4,0.1,0.7,0.5,0.6,0.9C98.2,237.2,97.8,237.5,97.5,237.5z M105.4,235.5c-0.2,0-0.4-0.1-0.6-0.3c-0.2-0.3-0.2-0.8,0.1-1
			c0.3-0.2,0.6-0.5,0.8-0.7c0.3-0.3,0.8-0.3,1.1,0c0.3,0.3,0.3,0.8,0,1.1c-0.3,0.3-0.6,0.6-1,0.8
			C105.7,235.5,105.5,235.5,105.4,235.5z M93.2,235.5c-0.2,0-0.3,0-0.5-0.2c-0.3-0.3-0.7-0.5-1-0.8c-0.3-0.3-0.3-0.8,0-1.1
			c0.3-0.3,0.8-0.3,1.1,0c0.3,0.3,0.6,0.5,0.8,0.7c0.3,0.2,0.4,0.7,0.1,1C93.6,235.4,93.4,235.5,93.2,235.5z M108.4,231.9
			c-0.1,0-0.2,0-0.4-0.1c-0.4-0.2-0.5-0.6-0.3-1c0.2-0.3,0.3-0.7,0.5-1c0.2-0.4,0.6-0.6,1-0.4c0.4,0.2,0.6,0.6,0.4,1
			c-0.2,0.4-0.3,0.8-0.5,1.1C109,231.8,108.7,231.9,108.4,231.9z M90.1,231.9c-0.3,0-0.5-0.1-0.7-0.4c-0.2-0.4-0.4-0.8-0.5-1.1
			c-0.2-0.4,0-0.8,0.4-1c0.4-0.2,0.8,0,1,0.4c0.1,0.3,0.3,0.7,0.5,1c0.2,0.4,0.1,0.8-0.3,1C90.4,231.9,90.2,231.9,90.1,231.9z
			 M109.8,227.4C109.8,227.4,109.8,227.4,109.8,227.4c-0.5,0-0.8-0.4-0.7-0.8c0-0.4,0.1-0.7,0.1-1.1c0-0.4,0.3-0.7,0.7-0.7
			s0.7,0.3,0.7,0.7c0,0.4,0,0.8-0.1,1.3C110.5,227.1,110.2,227.4,109.8,227.4z M88.8,227.4c-0.4,0-0.7-0.3-0.7-0.7
			c0-0.4-0.1-0.8-0.1-1.2c0-0.4,0.3-0.7,0.7-0.7s0.7,0.3,0.7,0.7c0,0.4,0,0.7,0.1,1.1C89.5,227,89.2,227.3,88.8,227.4
			C88.8,227.4,88.8,227.4,88.8,227.4z"/>
	</g>
</g>
</svg>
