<?xml version="1.0" encoding="utf-8"?>
<!-- Generator: Adobe Illustrator 22.0.1, SVG Export Plug-In . SVG Version: 6.00 Build 0)  -->
<svg version="1.1" id="Layer_1" xmlns="http://www.w3.org/2000/svg" xmlns:xlink="http://www.w3.org/1999/xlink" x="0px" y="0px"
	 viewBox="0 0 400 400" style="enable-background:new 0 0 400 400;" xml:space="preserve">
<style type="text/css">
	.st0{fill:#FFFFFF;}
	.st1{fill:#FFD200;}
	.st2{display:none;fill:#2A2A2A;}
	.st3{font-family:'GothamHTF-Black';}
	.st4{font-size:15.9016px;}
	.st5{fill:#2A2A2A;}
</style>
<title>process-1</title>
<desc>Created with Sketch.</desc>
<g id="Page-1_1_">
	<g id="process-1">
		<g id="Group" transform="translate(67.000000, 73.000000)">
			<g id="Page-1">
				<g id="Group-30" transform="translate(0.000000, 0.778000)">
					<g id="Clip-9">
					</g>
					<path id="Fill-23" class="st0" d="M195.3,2.7c-16.6,0-30,13.7-30,30.7s13.4,30.7,30,30.7s30-13.7,30-30.7S211.9,2.7,195.3,2.7
						 M176.8,44.9c-2.7,0-4.9-2.2-4.9-5s2.2-5,4.9-5s4.9,2.2,4.9,5C181.7,42.6,179.5,44.9,176.8,44.9 M199.2,47.8
						c-2.7,0-4.9-2.2-4.9-5s2.2-5,4.9-5s4.9,2.2,4.9,5C204.1,45.5,201.9,47.8,199.2,47.8"/>
				</g>
			</g>
		</g>
	</g>
	<path id="Fill-22" class="st0" d="M309,151.6c-0.8-4.8-4.9-8.2-9.6-8.1h-62.3c-2,0-4,0.5-5.7,1.8l-45.6,32.4L171,188.2
		c-1.4,1-1.7,2.9-0.8,4.3c0.6,0.9,1.5,1.3,2.5,1.3c0.6,0,1.2-0.2,1.7-0.6l7.4-5.3c0.3,1.2,0.8,2.4,1.5,3.4c1.9,2.8,4.9,4.2,8,4.2
		c1.9,0,3.8-0.6,5.5-1.8l34.1-24.2h5.4l-15.2,88.8c-0.3,1.6,0.8,2.9,2.4,2.9h13v55.5c0,6,4.8,10.9,10.7,10.9s10.7-4.9,10.7-10.9
		v-55.5h6.8v55.5c0,6,4.8,10.9,10.7,10.9c5.9,0,10.7-4.9,10.7-10.9v-55.5h13c1.6,0,2.7-1.3,2.4-2.9l-15.2-88.8h6l9.5,54.2
		c0.8,4.8,4.9,8.2,9.5,8.2c0.6,0,1.1-0.1,1.7-0.2c5.3-1,8.8-6.1,7.8-11.5L309,151.6z"/>
	<g id="process-2_4_">
		<g>
			<rect x="88.1" y="253.1" class="st0" width="65.5" height="4.7"/>
			<rect x="88.1" y="322.9" class="st0" width="65.5" height="4.7"/>
			<path class="st0" d="M156.2,327.6h-4.6v-102c0-7.6,6.1-13.7,13.7-13.7h2.1c2.5,0,4.6,2,4.6,4.6l0,0h-6.6c-5,0-9.1,4.1-9.1,9.1
				L156.2,327.6L156.2,327.6z"/>
			<rect x="133.7" y="214.5" class="st0" width="10.1" height="111.1"/>
			<path class="st0" d="M85.6,327.6h4.6v-102c0-7.6-6.1-13.7-13.7-13.7h-2.1c-2.5,0-4.6,2-4.6,4.6l0,0h6.6c5,0,9.1,4.1,9.1,9.1
				L85.6,327.6L85.6,327.6z"/>
			<rect x="115.8" y="214.5" class="st0" width="10.2" height="111.1"/>
			<rect x="98" y="214.5" class="st0" width="10.1" height="111.1"/>
			<path class="st0" d="M69.8,216.5L69.8,216.5c0-2.5,2-4.6,4.6-4.6h46.5h46.5c2.5,0,4.6,2,4.6,4.6l0,0h-51.1H69.8z"/>
		</g>
	</g>
</g>
<g id="_x33__1_">
	
		<rect x="88.1" y="244.8" transform="matrix(0.9717 -0.2362 0.2362 0.9717 -56.9168 35.785)" class="st1" width="65.6" height="21.3"/>
	<text id="text_3_" transform="matrix(0.9717 -0.2362 0.2362 0.9717 92.7687 267.9926)" class="st2 st3 st4">#CODE</text>
	<g id="text_1_">
		<path class="st5" d="M94.1,265.5l-1.2,0.3l-0.6-2.5l1.6-0.4l-0.1-1.8l-1.4,0.3l-0.6-2.5l1.9-0.5l-0.2-2.1l2.2-0.5l0.1,2.1l2-0.5
			l-0.2-2.1l2.2-0.5l0.2,2.1l1.2-0.3l0.6,2.5l-1.6,0.4l0.1,1.8l1.4-0.3l0.6,2.5l-1.8,0.4l0.1,2.2l-2.2,0.5l-0.1-2.2l-2,0.5l0.2,2.2
			l-2.2,0.5L94.1,265.5z M98.1,261.9L98,260l-2.1,0.5l0.1,1.9L98.1,261.9z"/>
		<path class="st5" d="M103.5,259.7L103.5,259.7c-0.8-3.2,1.1-6.2,4.3-7c2.2-0.5,3.9,0,5.1,1.1l-1.8,2.3c-0.8-0.6-1.6-0.9-2.7-0.7
			c-1.5,0.4-2.3,1.9-1.9,3.5l0,0c0.4,1.6,1.8,2.6,3.3,2.3c1.1-0.3,1.7-1,2.1-1.9l2.6,1.1c-0.7,1.7-1.8,3-4.2,3.6
			C107.4,264.7,104.3,262.9,103.5,259.7z"/>
		<path class="st5" d="M114.9,256.9L114.9,256.9c-0.8-3.1,1.1-6.3,4.5-7.1s6.4,1.1,7.2,4.2l0,0c0.8,3.1-1.1,6.2-4.5,7
			C118.7,261.9,115.6,260,114.9,256.9z M123.5,254.8L123.5,254.8c-0.4-1.6-1.8-2.7-3.5-2.3c-1.6,0.4-2.4,2-2,3.6l0,0
			c0.4,1.6,1.8,2.6,3.5,2.2C123.1,258,123.9,256.4,123.5,254.8z"/>
		<path class="st5" d="M127.2,248.2l4.2-1c3.9-0.9,6.6,0.7,7.4,3.9l0,0c0.8,3.1-0.9,6-4.8,6.9l-4.1,1L127.2,248.2z M133.4,255.3
			c1.8-0.4,2.7-1.7,2.3-3.5l0,0c-0.4-1.7-1.9-2.4-3.6-2l-1.2,0.3l1.3,5.5L133.4,255.3z"/>
		<path class="st5" d="M139.4,245.2l8.7-2.1l0.6,2.5L143,247l0.4,1.6l5.2-1.3l0.6,2.4L144,251l0.4,1.7l5.8-1.4l0.6,2.5L142,256
			L139.4,245.2z"/>
	</g>
</g>
</svg>
